<svg xmlns="http://www.w3.org/2000/svg" xml:space="preserve" width="18px" height="18px" viewBox="826 826 140 140"><path d="m960.76 934.5 2.63 23.55a4.77 4.77 0 0 1-4.81 5.34H833.42a4.77 4.77 0 0 1-4.81-5.34l2.63-23.54h129.52zm-7-63.1 6.47 58.3H831.77l6.47-58.3c.15-1.2.67-2.21 1.58-3.04a4.62 4.62 0 0 1 3.23-1.24h19.26v9.63c0 2.65.94 4.92 2.82 6.8s4.15 2.82 6.8 2.82c2.66 0 4.93-.94 6.81-2.82s2.82-4.15 2.82-6.8v-9.63h28.88v9.63c0 2.65.94 4.92 2.82 6.8s4.15 2.82 6.8 2.82 4.94-.94 6.82-2.82a9.28 9.28 0 0 0 2.82-6.8v-9.63h19.25a4.83 4.83 0 0 1 4.81 4.29zm-28.88-13.9v19.25c0 1.3-.48 2.43-1.43 3.38s-2.08 1.43-3.38 1.43c-1.3 0-2.44-.48-3.39-1.43a4.63 4.63 0 0 1-1.43-3.38v-19.26c0-5.31-1.88-9.85-5.64-13.61s-8.3-5.64-13.61-5.64-9.85 1.88-13.61 5.64a18.55 18.55 0 0 0-5.65 13.61v19.26c0 1.3-.47 2.43-1.42 3.38a4.63 4.63 0 0 1-3.39 1.43c-1.3 0-2.43-.48-3.38-1.43a4.63 4.63 0 0 1-1.43-3.38v-19.26c0-7.97 2.82-14.78 8.46-20.42a27.83 27.83 0 0 1 20.42-8.46c7.97 0 14.78 2.82 20.42 8.46a27.82 27.82 0 0 1 8.46 20.42z"/></svg>